<svg xmlns="http://www.w3.org/2000/svg" xmlns:xlink="http://www.w3.org/1999/xlink" width="656" height="656" viewBox="0 0 656 656">
  <defs>
    <filter id="Rectangle_14" x="0" y="0" width="656" height="656" filterUnits="userSpaceOnUse">
      <feOffset input="SourceAlpha"/>
      <feGaussianBlur stdDeviation="24" result="blur"/>
      <feFlood flood-opacity="0.133"/>
      <feComposite operator="in" in2="blur"/>
      <feComposite in="SourceGraphic"/>
    </filter>
  </defs>
  <g id="Group_13" data-name="Group 13" transform="translate(-184 -184)">
    <g transform="matrix(1, 0, 0, 1, 184, 184)" filter="url(#Rectangle_14)">
      <g id="Rectangle_14-2" data-name="Rectangle 14" transform="translate(72 72)" fill="#fff" stroke="#fff" stroke-width="26">
        <rect width="512" height="512" rx="100" stroke="none"/>
        <rect x="13" y="13" width="486" height="486" rx="87" fill="none"/>
      </g>
    </g>
    <path id="Path_5" data-name="Path 5" d="M187.348,397.592h-.2A59.711,59.711,0,0,1,127.5,337.824V189.9c0-1.545.06-3.107.179-4.645a107.178,107.178,0,0,1,10.143-39.973,108.788,108.788,0,0,1,57.3-54.3A107.471,107.471,0,0,1,235.844,83h.223a109.463,109.463,0,0,1,21.808,2.2A108.073,108.073,0,0,1,296.7,101.54a108.8,108.8,0,0,1,39.3,47.735,108.315,108.315,0,0,1,6.328,20.385,109.373,109.373,0,0,1,.017,43.662,107.963,107.963,0,0,1-16.258,38.752,108.831,108.831,0,0,1-47.53,39.311A107.883,107.883,0,0,1,247,299.493v38.351a59.7,59.7,0,0,1-59.648,59.748Zm-.1-21.135h.1a38.569,38.569,0,0,0,38.514-38.591V300.044H212.041A35.039,35.039,0,0,1,177.087,265.1V184.612A34.955,34.955,0,0,1,247,184.6v93.624q3.5-.439,6.954-1.156a86.836,86.836,0,0,0,31.1-13.2,87.671,87.671,0,0,0,31.532-38.42,87.143,87.143,0,0,0,5.061-16.351,88.249,88.249,0,0,0-.014-35.205,86.842,86.842,0,0,0-13.142-31.225A87.675,87.675,0,0,0,270.027,111a87.086,87.086,0,0,0-16.386-5.086,88.208,88.208,0,0,0-17.6-1.775h-.18a86.464,86.464,0,0,0-32.77,6.411A87.717,87.717,0,0,0,156.934,154.3a86.173,86.173,0,0,0-8.159,32.232l-.017.259c-.081,1.026-.123,2.07-.123,3.1V337.844a38.572,38.572,0,0,0,38.517,38.613h.1ZM212.03,170.793a13.863,13.863,0,0,0-13.808,13.831v80.466a13.866,13.866,0,0,0,13.831,13.819h13.808v-94.3A13.866,13.866,0,0,0,212.03,170.793Z" transform="translate(275.5 272)" fill="#1f1f1f" stroke="rgba(0,0,0,0)" stroke-width="1"/>
  </g>
</svg>
